<svg width="375" height="139" viewBox="0 0 375 139" fill="none" xmlns="http://www.w3.org/2000/svg">
<path fill-rule="evenodd" clip-rule="evenodd" d="M223.59 -238.895C274.292 -241.569 304.795 -192.375 344.551 -165.536C382.043 -140.225 438.396 -126.072 449.345 -86.4896C460.269 -47.0003 414.184 -14.2575 396.854 23.5447C380.927 58.2861 387.381 103.676 352.023 125.794C316.641 147.928 267.2 136.589 223.59 131.931C185.251 127.836 148.407 119.37 116.674 100.657C84.3827 81.6143 62.4472 54.6007 43.1491 25.5236C19.0343 -10.811 -24.2097 -48.7209 -8.73459 -88.3009C6.75175 -127.91 73.9996 -127.998 113.077 -153.329C153.699 -179.66 172.573 -236.205 223.59 -238.895Z" fill="#F2B6B6"/>
<path fill-rule="evenodd" clip-rule="evenodd" d="M174.715 -312.119C220.382 -302.03 248.71 -261.14 280.45 -227.885C305.773 -201.354 319.883 -169.732 339.769 -139.19C368.418 -95.1882 449.776 -54.5342 422.483 -9.73717C392.132 40.0789 304.01 -11.103 248.511 10.5949C214.204 24.0078 207.581 70.697 174.715 87.1312C123.575 112.703 59.8618 159.61 11.8184 128.951C-35.4626 98.7781 -16.2358 24.3021 -8.70031 -29.9168C-3.45321 -67.6703 42.164 -89.5935 47.439 -127.343C54.9079 -180.793 -4.14461 -239.008 26.7935 -283.923C55.3157 -325.331 124.494 -323.214 174.715 -312.119Z" fill="#665577"/>
<path fill-rule="evenodd" clip-rule="evenodd" d="M-105.817 -452.007C-59.6995 -448.894 -15.6208 -482.394 29.4584 -472.543C76.1771 -462.333 124.142 -436.918 147.393 -396.672C170.825 -356.113 138.59 -303.731 152.627 -259.347C168.1 -210.421 251.222 -176.312 232.182 -128.561C211.536 -76.7803 115.241 -103.869 74.8422 -64.2658C40.3868 -30.4889 68.0954 38.7037 30.4602 69.1882C-4.87959 97.8134 -59.6257 83.7566 -105.817 82.0679C-150.84 80.4219 -196.311 77.6071 -237.189 59.4033C-278.316 41.0883 -323.523 17.6388 -340.858 -22.601C-358.544 -63.6568 -311.35 -112.669 -329.008 -153.736C-351.938 -207.064 -455.997 -220.842 -450.813 -278.326C-446.04 -331.251 -347.507 -320.026 -310.454 -359.459C-276.556 -395.536 -296.336 -470.74 -250.564 -491.44C-204.613 -512.222 -156.48 -455.426 -105.817 -452.007Z" fill="#20C3AF"/>
</svg>
