<svg width="375" height="208" viewBox="0 0 375 208" fill="none" xmlns="http://www.w3.org/2000/svg">
<path fill-rule="evenodd" clip-rule="evenodd" d="M231.59 -169.895C282.292 -172.569 312.795 -123.375 352.551 -96.5357C390.043 -71.2255 446.396 -57.0715 457.345 -17.4896C468.269 21.9997 422.184 54.7425 404.854 92.5446C388.927 127.286 395.381 172.676 360.023 194.794C324.641 216.928 275.2 205.589 231.59 200.931C193.251 196.836 156.407 188.37 124.674 169.657C92.3827 150.614 70.4472 123.601 51.1491 94.5236C27.0343 58.189 -16.2097 20.2791 -0.734589 -19.3009C14.7517 -58.9096 81.9996 -58.9983 121.077 -84.3288C161.699 -110.66 180.573 -167.205 231.59 -169.895Z" fill="#F2B6B6"/>
<path fill-rule="evenodd" clip-rule="evenodd" d="M182.715 -243.119C228.382 -233.03 256.71 -192.14 288.45 -158.885C313.773 -132.354 327.883 -100.732 347.769 -70.1897C376.418 -26.1882 457.776 14.4658 430.483 59.2628C400.132 109.079 312.01 57.897 256.511 79.5949C222.204 93.0078 215.581 139.697 182.715 156.131C131.575 181.703 67.8618 228.61 19.8184 197.951C-27.4626 167.778 -8.23581 93.3021 -0.700306 39.0832C4.54679 1.32973 50.164 -20.5935 55.439 -58.3433C62.9079 -111.793 3.85539 -170.008 34.7935 -214.923C63.3157 -256.331 132.494 -254.214 182.715 -243.119Z" fill="#665577"/>
<path fill-rule="evenodd" clip-rule="evenodd" d="M-97.8166 -383.007C-51.6995 -379.894 -7.62079 -413.394 37.4584 -403.543C84.1771 -393.333 132.142 -367.918 155.393 -327.672C178.825 -287.113 146.591 -234.731 160.627 -190.347C176.1 -141.421 259.222 -107.312 240.182 -59.5612C219.536 -7.78027 123.241 -34.8687 82.8422 4.73422C48.3867 38.5111 76.0954 107.704 38.4602 138.188C3.12042 166.813 -51.6256 152.757 -97.8166 151.068C-142.84 149.422 -188.311 146.607 -229.189 128.403C-270.316 110.088 -315.523 86.6389 -332.858 46.399C-350.544 5.3432 -303.35 -43.6687 -321.008 -84.7359C-343.938 -138.064 -447.997 -151.842 -442.813 -209.326C-438.04 -262.251 -339.507 -251.026 -302.454 -290.459C-268.556 -326.536 -288.336 -401.74 -242.564 -422.44C-196.613 -443.222 -148.48 -386.426 -97.8166 -383.007Z" fill="#20C3AF"/>
</svg>
