<svg width="15" height="15" viewBox="0 0 15 15" fill="none" xmlns="http://www.w3.org/2000/svg">
<path d="M14.9921 7.64033C14.9921 7.02579 14.9411 6.57733 14.8306 6.11227H7.64941V8.88601H11.8646C11.7797 9.57533 11.3208 10.6134 10.3009 11.311L10.2866 11.4038L12.5572 13.1227L12.7145 13.1381C14.1592 11.8342 14.9921 9.9158 14.9921 7.64033Z" fill="#4285F4"/>
<path d="M7.64941 14.9485C9.71451 14.9485 11.4482 14.2841 12.7145 13.1381L10.3009 11.311C9.65504 11.7511 8.78818 12.0584 7.64941 12.0584C5.62679 12.0584 3.91011 10.7546 3.29816 8.95248L3.20846 8.95993L0.847496 10.7454L0.81662 10.8293C2.07438 13.2709 4.65792 14.9485 7.64941 14.9485Z" fill="#34A853"/>
<path d="M3.29814 8.95249C3.13667 8.48744 3.04322 7.98912 3.04322 7.47425C3.04322 6.95933 3.13667 6.46106 3.28964 5.99601L3.28537 5.89696L0.894811 4.08276L0.816597 4.11912C0.298213 5.13231 0.000762939 6.27007 0.000762939 7.47425C0.000762939 8.67843 0.298213 9.81614 0.816597 10.8293L3.29814 8.95249Z" fill="#FBBC05"/>
<path d="M7.64941 2.89002C9.08563 2.89002 10.0544 3.49626 10.6069 4.00288L12.7655 1.9433C11.4397 0.739122 9.71451 0 7.64941 0C4.65792 0 2.07438 1.67754 0.81662 4.1191L3.28967 5.99599C3.91011 4.19387 5.62679 2.89002 7.64941 2.89002Z" fill="#EB4335"/>
</svg>
