<svg width="178" height="206" viewBox="0 0 178 206" fill="none" xmlns="http://www.w3.org/2000/svg">
<path d="M86.6489 149.486C87.179 149.96 87.8677 150.223 88.5817 150.223C89.2958 150.223 89.9845 149.96 90.5146 149.486C92.9378 147.311 149.308 95.8221 149.308 62.1927C149.308 27.9052 122.075 0 88.5817 0C55.0887 0 28 27.9052 28 62.1927C28 95.8221 84.2256 147.311 86.6489 149.486ZM115.093 38.3517C122.998 33.801 128.854 42.4731 126.633 51.6031C125.997 55.3359 123.929 58.6795 120.863 60.9334C112.988 65.5128 107.074 56.8407 109.324 47.7107C109.97 43.9739 112.035 40.6247 115.093 38.3517ZM99.7172 20.2921C113.391 20.521 113.391 48.0255 99.7172 48.2545C86.0142 48.0255 86.0142 20.521 99.7172 20.2921ZM77.4462 20.2921C91.1492 20.521 91.1492 48.0255 77.4462 48.2545C63.7721 48.0255 63.7721 20.521 77.4462 20.2921ZM56.358 60.9334C53.2922 58.6795 51.2245 55.3359 50.5883 51.6031C48.4247 42.4731 54.2809 33.7724 62.1277 38.3517C65.2406 40.5991 67.3591 43.9517 68.0416 47.7107C70.1476 56.8407 64.2336 65.5128 56.358 60.9334ZM73.1478 88.4379C62.2142 88.7241 56.8484 74.4138 64.6952 67.1155L77.0424 55.2093C80.1002 52.2342 84.2123 50.5676 88.4952 50.5676C92.7781 50.5676 96.8901 52.2342 99.948 55.2093L112.382 67.1155C120.575 74.5569 114.545 89.2965 103.323 88.4379C98.3614 87.8083 94.0341 85.5759 88.4952 85.5759C82.9563 85.5759 78.5713 88.4952 73.1478 88.4379Z" fill="white"/>
<path d="M122.94 131.798C122.175 131.65 121.382 131.81 120.735 132.242C120.089 132.674 119.642 133.343 119.493 134.102C119.344 134.861 119.504 135.648 119.94 136.29C120.375 136.931 121.05 137.374 121.815 137.522C137.768 140.671 143.538 145.193 143.538 147.482C143.538 152.749 122.132 160.39 88.7259 160.39C55.3194 160.39 33.9139 152.749 33.9139 147.482C33.9139 145.193 39.6836 140.671 55.6367 137.522C56.3859 137.377 57.0464 136.943 57.4736 136.315C57.9007 135.688 58.0598 134.918 57.9158 134.174C57.8434 133.803 57.6976 133.45 57.487 133.135C57.2763 132.82 57.0049 132.55 56.6885 132.34C56.372 132.13 56.0167 131.984 55.6431 131.91C55.2695 131.837 54.8849 131.838 54.5117 131.913C42.4819 134.288 28.1442 138.896 28.1442 147.482C27.9999 159.589 58.4062 166 88.5817 166C118.757 166 149.163 159.589 149.163 147.368C149.308 138.782 134.97 134.174 122.94 131.798Z" fill="white"/>
<path d="M12.4458 182.6C14.4298 182.6 16.1471 182.931 17.5978 183.592C19.0698 184.253 20.2004 185.192 20.9898 186.408C21.7791 187.624 22.1738 189.064 22.1738 190.728C22.1738 192.371 21.7791 193.811 20.9898 195.048C20.2004 196.264 19.0698 197.203 17.5978 197.864C16.1471 198.504 14.4298 198.824 12.4458 198.824H7.93375V205H2.74975V182.6H12.4458ZM12.1578 194.6C13.7151 194.6 14.8991 194.269 15.7098 193.608C16.5204 192.925 16.9258 191.965 16.9258 190.728C16.9258 189.469 16.5204 188.509 15.7098 187.848C14.8991 187.165 13.7151 186.824 12.1578 186.824H7.93375V194.6H12.1578ZM42.7305 196.456C42.7305 196.52 42.6985 196.968 42.6345 197.8H29.6105C29.8452 198.867 30.3998 199.709 31.2745 200.328C32.1492 200.947 33.2372 201.256 34.5385 201.256C35.4345 201.256 36.2238 201.128 36.9065 200.872C37.6105 200.595 38.2612 200.168 38.8585 199.592L41.5145 202.472C39.8932 204.328 37.5252 205.256 34.4105 205.256C32.4692 205.256 30.7518 204.883 29.2585 204.136C27.7652 203.368 26.6132 202.312 25.8025 200.968C24.9918 199.624 24.5865 198.099 24.5865 196.392C24.5865 194.707 24.9812 193.192 25.7705 191.848C26.5812 190.483 27.6798 189.427 29.0665 188.68C30.4745 187.912 32.0425 187.528 33.7705 187.528C35.4558 187.528 36.9812 187.891 38.3465 188.616C39.7118 189.341 40.7785 190.387 41.5465 191.752C42.3358 193.096 42.7305 194.664 42.7305 196.456ZM33.8025 191.304C32.6718 191.304 31.7225 191.624 30.9545 192.264C30.1865 192.904 29.7172 193.779 29.5465 194.888H38.0265C37.8558 193.8 37.3865 192.936 36.6185 192.296C35.8505 191.635 34.9118 191.304 33.8025 191.304ZM57.533 204.168C57.0423 204.531 56.4343 204.808 55.709 205C55.005 205.171 54.2583 205.256 53.469 205.256C51.421 205.256 49.8317 204.733 48.701 203.688C47.5917 202.643 47.037 201.107 47.037 199.08V192.008H44.381V188.168H47.037V183.976H52.029V188.168H56.317V192.008H52.029V199.016C52.029 199.741 52.2103 200.307 52.573 200.712C52.957 201.096 53.4903 201.288 54.173 201.288C54.9623 201.288 55.6343 201.075 56.189 200.648L57.533 204.168ZM75.6838 186.76V192.68H86.0518V196.84H75.6838V205H70.4998V182.6H87.4278V186.76H75.6838ZM90.6478 187.784H95.6398V205H90.6478V187.784ZM93.1438 185.384C92.2264 185.384 91.4798 185.117 90.9038 184.584C90.3278 184.051 90.0398 183.389 90.0398 182.6C90.0398 181.811 90.3278 181.149 90.9038 180.616C91.4798 180.083 92.2264 179.816 93.1438 179.816C94.0611 179.816 94.8078 180.072 95.3838 180.584C95.9598 181.096 96.2478 181.736 96.2478 182.504C96.2478 183.336 95.9598 184.029 95.3838 184.584C94.8078 185.117 94.0611 185.384 93.1438 185.384ZM111.112 187.528C113.245 187.528 114.962 188.168 116.264 189.448C117.586 190.728 118.248 192.627 118.248 195.144V205H113.256V195.912C113.256 194.547 112.957 193.533 112.36 192.872C111.762 192.189 110.898 191.848 109.768 191.848C108.509 191.848 107.506 192.243 106.76 193.032C106.013 193.8 105.64 194.952 105.64 196.488V205H100.648V187.784H105.416V189.8C106.077 189.075 106.898 188.52 107.88 188.136C108.861 187.731 109.938 187.528 111.112 187.528ZM140.871 181.256V205H136.103V203.016C134.866 204.509 133.074 205.256 130.727 205.256C129.106 205.256 127.634 204.893 126.311 204.168C125.01 203.443 123.986 202.408 123.239 201.064C122.493 199.72 122.119 198.163 122.119 196.392C122.119 194.621 122.493 193.064 123.239 191.72C123.986 190.376 125.01 189.341 126.311 188.616C127.634 187.891 129.106 187.528 130.727 187.528C132.925 187.528 134.642 188.221 135.879 189.608V181.256H140.871ZM131.591 201.16C132.85 201.16 133.895 200.733 134.727 199.88C135.559 199.005 135.975 197.843 135.975 196.392C135.975 194.941 135.559 193.789 134.727 192.936C133.895 192.061 132.85 191.624 131.591 191.624C130.311 191.624 129.255 192.061 128.423 192.936C127.591 193.789 127.175 194.941 127.175 196.392C127.175 197.843 127.591 199.005 128.423 199.88C129.255 200.733 130.311 201.16 131.591 201.16ZM162.731 196.456C162.731 196.52 162.699 196.968 162.635 197.8H149.611C149.845 198.867 150.4 199.709 151.275 200.328C152.149 200.947 153.237 201.256 154.539 201.256C155.435 201.256 156.224 201.128 156.907 200.872C157.611 200.595 158.261 200.168 158.859 199.592L161.515 202.472C159.893 204.328 157.525 205.256 154.411 205.256C152.469 205.256 150.752 204.883 149.259 204.136C147.765 203.368 146.613 202.312 145.803 200.968C144.992 199.624 144.587 198.099 144.587 196.392C144.587 194.707 144.981 193.192 145.771 191.848C146.581 190.483 147.68 189.427 149.067 188.68C150.475 187.912 152.043 187.528 153.771 187.528C155.456 187.528 156.981 187.891 158.347 188.616C159.712 189.341 160.779 190.387 161.547 191.752C162.336 193.096 162.731 194.664 162.731 196.456ZM153.803 191.304C152.672 191.304 151.723 191.624 150.955 192.264C150.187 192.904 149.717 193.779 149.547 194.888H158.027C157.856 193.8 157.387 192.936 156.619 192.296C155.851 191.635 154.912 191.304 153.803 191.304ZM171.197 190.056C171.794 189.224 172.594 188.595 173.597 188.168C174.621 187.741 175.794 187.528 177.117 187.528V192.136C176.562 192.093 176.189 192.072 175.997 192.072C174.568 192.072 173.448 192.477 172.637 193.288C171.826 194.077 171.421 195.272 171.421 196.872V205H166.429V187.784H171.197V190.056Z" fill="white"/>
</svg>
