<svg width="117" height="115" viewBox="0 0 117 115" fill="none" xmlns="http://www.w3.org/2000/svg">
<path d="M57.3728 83.4524C57.6688 83.7173 58.0532 83.864 58.4519 83.864C58.8505 83.864 59.235 83.7173 59.5309 83.4524C60.8837 82.238 92.3529 53.4939 92.3529 34.7199C92.3529 15.5784 77.1498 0 58.4519 0C39.7539 0 24.6313 15.5784 24.6313 34.7199C24.6313 53.4939 56.02 82.238 57.3728 83.4524ZM73.2524 21.4103C77.6651 18.8699 80.9344 23.7111 79.6944 28.8081C79.3392 30.8919 78.1849 32.7586 76.4734 34.0169C72.0767 36.5733 68.7752 31.732 70.0314 26.6351C70.3921 24.549 71.5448 22.6792 73.2524 21.4103ZM64.6684 11.3283C72.3022 11.4561 72.3022 26.8108 64.6684 26.9387C57.0185 26.8108 57.0185 11.4561 64.6684 11.3283ZM52.2353 11.3283C59.8852 11.4561 59.8852 26.8108 52.2353 26.9387C44.6016 26.8108 44.6016 11.4561 52.2353 11.3283ZM40.4626 34.0169C38.751 32.7586 37.5967 30.8919 37.2416 28.8081C36.0337 23.7111 39.303 18.8539 43.6836 21.4103C45.4214 22.665 46.604 24.5366 46.9851 26.6351C48.1608 31.732 44.8592 36.5733 40.4626 34.0169ZM49.8357 49.3716C43.7319 49.5314 40.7364 41.5424 45.1169 37.4681L52.0099 30.8213C53.7169 29.1604 56.0126 28.23 58.4035 28.23C60.7945 28.23 63.0901 29.1604 64.7972 30.8213L71.7385 37.4681C76.3123 41.6223 72.9464 49.8509 66.6815 49.3716C63.9115 49.0201 61.4957 47.7738 58.4035 47.7738C55.3114 47.7738 52.8634 49.4035 49.8357 49.3716Z" fill="white"/>
<path d="M77.6329 73.578C77.2058 73.4954 76.7631 73.5845 76.4022 73.8257C76.0412 74.0669 75.7917 74.4405 75.7084 74.8642C75.6251 75.288 75.7149 75.7272 75.958 76.0853C76.2012 76.4434 76.5777 76.691 77.0048 76.7736C85.9109 78.5312 89.1319 81.0557 89.1319 82.3339C89.1319 85.2738 77.182 89.5399 58.5324 89.5399C39.8828 89.5399 27.9329 85.2738 27.9329 82.3339C27.9329 81.0557 31.1539 78.5312 40.06 76.7736C40.4782 76.6924 40.8469 76.4501 41.0854 76.0997C41.3239 75.7493 41.4126 75.3194 41.3323 74.9042C41.2918 74.6971 41.2105 74.5 41.0929 74.3243C40.9753 74.1486 40.8238 73.9977 40.6471 73.8803C40.4704 73.763 40.2721 73.6815 40.0635 73.6406C39.8549 73.5997 39.6403 73.6001 39.4319 73.6419C32.7161 74.9681 24.7119 77.5405 24.7119 82.3339C24.6314 89.0925 41.606 92.6716 58.4519 92.6716C75.2977 92.6716 92.2724 89.0925 92.2724 82.27C92.3529 77.4766 84.3487 74.9042 77.6329 73.578Z" fill="white"/>
<path d="M18.5311 104.48C18.5311 105.293 18.3445 106.04 17.9711 106.72C17.5978 107.387 17.0245 107.927 16.2511 108.34C15.4778 108.753 14.5178 108.96 13.3711 108.96H11.2511V114H7.83113V99.96H13.3711C14.4911 99.96 15.4378 100.153 16.2111 100.54C16.9845 100.927 17.5645 101.46 17.9511 102.14C18.3378 102.82 18.5311 103.6 18.5311 104.48ZM13.1111 106.24C13.7645 106.24 14.2511 106.087 14.5711 105.78C14.8911 105.473 15.0511 105.04 15.0511 104.48C15.0511 103.92 14.8911 103.487 14.5711 103.18C14.2511 102.873 13.7645 102.72 13.1111 102.72H11.2511V106.24H13.1111ZM31.041 108.24C31.041 108.56 31.021 108.893 30.981 109.24H23.241C23.2943 109.933 23.5143 110.467 23.901 110.84C24.301 111.2 24.7876 111.38 25.361 111.38C26.2143 111.38 26.8076 111.02 27.141 110.3H30.781C30.5943 111.033 30.2543 111.693 29.761 112.28C29.281 112.867 28.6743 113.327 27.941 113.66C27.2076 113.993 26.3876 114.16 25.481 114.16C24.3876 114.16 23.4143 113.927 22.561 113.46C21.7076 112.993 21.041 112.327 20.561 111.46C20.081 110.593 19.841 109.58 19.841 108.42C19.841 107.26 20.0743 106.247 20.541 105.38C21.021 104.513 21.6876 103.847 22.541 103.38C23.3943 102.913 24.3743 102.68 25.481 102.68C26.561 102.68 27.521 102.907 28.361 103.36C29.201 103.813 29.8543 104.46 30.321 105.3C30.801 106.14 31.041 107.12 31.041 108.24ZM27.541 107.34C27.541 106.753 27.341 106.287 26.941 105.94C26.541 105.593 26.041 105.42 25.441 105.42C24.8676 105.42 24.381 105.587 23.981 105.92C23.5943 106.253 23.3543 106.727 23.261 107.34H27.541ZM39.2745 111.1V114H37.5345C36.2945 114 35.3279 113.7 34.6345 113.1C33.9412 112.487 33.5945 111.493 33.5945 110.12V105.68H32.2345V102.84H33.5945V100.12H37.0145V102.84H39.2545V105.68H37.0145V110.16C37.0145 110.493 37.0945 110.733 37.2545 110.88C37.4145 111.027 37.6812 111.1 38.0545 111.1H39.2745ZM54.9765 99.96V102.7H49.2565V105.66H53.5365V108.32H49.2565V114H45.8365V99.96H54.9765ZM58.7033 101.68C58.1033 101.68 57.61 101.507 57.2233 101.16C56.85 100.8 56.6633 100.36 56.6633 99.84C56.6633 99.3067 56.85 98.8667 57.2233 98.52C57.61 98.16 58.1033 97.98 58.7033 97.98C59.29 97.98 59.77 98.16 60.1433 98.52C60.53 98.8667 60.7233 99.3067 60.7233 99.84C60.7233 100.36 60.53 100.8 60.1433 101.16C59.77 101.507 59.29 101.68 58.7033 101.68ZM60.4033 102.84V114H56.9833V102.84H60.4033ZM69.8911 102.72C71.1978 102.72 72.2378 103.147 73.0111 104C73.7978 104.84 74.1911 106 74.1911 107.48V114H70.7911V107.94C70.7911 107.193 70.5978 106.613 70.2111 106.2C69.8245 105.787 69.3045 105.58 68.6511 105.58C67.9978 105.58 67.4778 105.787 67.0911 106.2C66.7045 106.613 66.5111 107.193 66.5111 107.94V114H63.0911V102.84H66.5111V104.32C66.8578 103.827 67.3245 103.44 67.9111 103.16C68.4978 102.867 69.1578 102.72 69.8911 102.72ZM76.097 108.4C76.097 107.253 76.3104 106.247 76.737 105.38C77.177 104.513 77.7704 103.847 78.517 103.38C79.2637 102.913 80.097 102.68 81.017 102.68C81.7504 102.68 82.417 102.833 83.017 103.14C83.6304 103.447 84.1104 103.86 84.457 104.38V99.2H87.877V114H84.457V112.4C84.137 112.933 83.677 113.36 83.077 113.68C82.4904 114 81.8037 114.16 81.017 114.16C80.097 114.16 79.2637 113.927 78.517 113.46C77.7704 112.98 77.177 112.307 76.737 111.44C76.3104 110.56 76.097 109.547 76.097 108.4ZM84.457 108.42C84.457 107.567 84.217 106.893 83.737 106.4C83.2704 105.907 82.697 105.66 82.017 105.66C81.337 105.66 80.757 105.907 80.277 106.4C79.8104 106.88 79.577 107.547 79.577 108.4C79.577 109.253 79.8104 109.933 80.277 110.44C80.757 110.933 81.337 111.18 82.017 111.18C82.697 111.18 83.2704 110.933 83.737 110.44C84.217 109.947 84.457 109.273 84.457 108.42ZM101.081 108.24C101.081 108.56 101.061 108.893 101.021 109.24H93.2806C93.3339 109.933 93.5539 110.467 93.9406 110.84C94.3406 111.2 94.8273 111.38 95.4006 111.38C96.2539 111.38 96.8473 111.02 97.1806 110.3H100.821C100.634 111.033 100.294 111.693 99.8006 112.28C99.3206 112.867 98.7139 113.327 97.9806 113.66C97.2473 113.993 96.4273 114.16 95.5206 114.16C94.4273 114.16 93.4539 113.927 92.6006 113.46C91.7473 112.993 91.0806 112.327 90.6006 111.46C90.1206 110.593 89.8806 109.58 89.8806 108.42C89.8806 107.26 90.1139 106.247 90.5806 105.38C91.0606 104.513 91.7273 103.847 92.5806 103.38C93.4339 102.913 94.4139 102.68 95.5206 102.68C96.6006 102.68 97.5606 102.907 98.4006 103.36C99.2406 103.813 99.8939 104.46 100.361 105.3C100.841 106.14 101.081 107.12 101.081 108.24ZM97.5806 107.34C97.5806 106.753 97.3806 106.287 96.9806 105.94C96.5806 105.593 96.0806 105.42 95.4806 105.42C94.9073 105.42 94.4206 105.587 94.0206 105.92C93.6339 106.253 93.3939 106.727 93.3006 107.34H97.5806ZM106.514 104.7C106.914 104.087 107.414 103.607 108.014 103.26C108.614 102.9 109.281 102.72 110.014 102.72V106.34H109.074C108.221 106.34 107.581 106.527 107.154 106.9C106.728 107.26 106.514 107.9 106.514 108.82V114H103.094V102.84H106.514V104.7Z" fill="white"/>
</svg>
